<svg width="242" height="38" viewBox="0 0 242 38" fill="none" xmlns="http://www.w3.org/2000/svg">
<path fill-rule="evenodd" clip-rule="evenodd" d="M0 15.7142V29.2429C0 34.0793 3.91858 38 8.7524 38H9.56388L0 15.7142ZM16.788 38L1.89458 3.29513C3.38168 1.42157 5.61955 0.171415 8.15311 0L19.3418 27.6304L30.5026 0.0691408C33.0026 0.428301 35.1614 1.84461 36.512 3.85078L21.857 38H16.788ZM29.2476 38H29.089L38 17.2356V29.2429C38 34.0793 34.0814 38 29.2476 38Z" fill="#0A8270"/>
<path d="M64.6373 26.479C64.0501 26.479 63.6161 26.2627 63.3353 25.8303L57.8974 16.2526C57.5911 15.8202 57.2975 15.2987 57.0166 14.6882L56.8634 14.7263C56.889 15.1588 56.9017 15.8075 56.9017 16.6724V32.2026C56.9017 32.9404 56.2252 33.3092 54.8721 33.3092H54.0296C52.6765 33.3092 52 32.9404 52 32.2026V7.55263C52 6.81491 52.6765 6.44605 54.0296 6.44605H55.8295C56.9273 6.44605 57.6421 6.75132 57.974 7.36184L64.6373 19.0763C64.8926 19.5088 65.0968 19.9285 65.25 20.3355C65.3521 20.0048 65.5564 19.5724 65.8627 19.0382L72.5643 7.36184C72.8962 6.75132 73.5983 6.44605 74.6706 6.44605H76.4321C77.7852 6.44605 78.4618 6.81491 78.4618 7.55263V32.2026C78.4618 32.9404 77.7852 33.3092 76.4321 33.3092H75.5896C74.2366 33.3092 73.56 32.9404 73.56 32.2026V16.7487C73.56 15.8838 73.5728 15.2351 73.5983 14.8026L73.4451 14.7645C73.1643 15.375 72.8707 15.8965 72.5643 16.3289L67.1648 25.8303C66.8839 26.2627 66.4499 26.479 65.8627 26.479H64.6373Z" fill="#272D2C"/>
<path d="M92.9285 33.5C89.6352 33.5 87.1843 32.6351 85.5759 30.9053C83.9675 29.15 83.1633 26.6443 83.1633 23.3882C83.1633 19.8776 83.9548 17.2702 85.5376 15.5658C87.146 13.8614 89.4054 13.0092 92.3158 13.0092C95.0731 13.0092 97.1154 13.8996 98.443 15.6803C99.7961 17.461 100.473 19.8649 100.473 22.8921C100.473 23.1719 100.243 23.5789 99.7833 24.1132C99.3238 24.6219 98.9791 24.8763 98.7494 24.8763H88.18C88.3076 26.5553 88.7672 27.7763 89.5586 28.5395C90.3755 29.2772 91.5499 29.6461 93.0817 29.6461C94.4603 29.6461 95.8645 29.2899 97.2942 28.5776C97.7026 28.3996 97.9579 28.3105 98.0601 28.3105C98.3919 28.3105 98.7621 28.6539 99.1706 29.3408C99.6046 30.0022 99.8216 30.511 99.8216 30.8671C99.8216 31.3504 99.4514 31.7956 98.7111 32.2026C97.9707 32.6097 97.0516 32.9276 95.9538 33.1566C94.8816 33.3855 93.8731 33.5 92.9285 33.5ZM95.6858 21.4803C95.6858 20.0303 95.3922 18.8982 94.805 18.0842C94.2433 17.2702 93.4008 16.8632 92.2775 16.8632C89.9032 16.8632 88.5374 18.4022 88.18 21.4803H95.6858Z" fill="#272D2C"/>
<path d="M110.632 33.5C109.202 33.5 107.939 33.093 106.841 32.2789C105.743 31.4395 104.888 30.2566 104.275 28.7303C103.662 27.1785 103.356 25.3469 103.356 23.2355C103.356 20.0557 104.071 17.5627 105.501 15.7566C106.93 13.925 108.883 13.0092 111.36 13.0092C113.07 13.0092 114.551 13.4925 115.802 14.4592V5.56842C115.802 4.85614 116.478 4.5 117.832 4.5H118.597C119.951 4.5 120.627 4.85614 120.627 5.56842V26.8987C120.627 28.6285 120.704 29.9004 120.857 30.7145C121.01 31.5031 121.087 31.9864 121.087 32.1645C121.087 32.5206 120.665 32.8004 119.823 33.0039C118.98 33.182 118.227 33.2711 117.564 33.2711C117.155 33.2711 116.861 33.093 116.683 32.7368C116.504 32.3553 116.364 31.9482 116.261 31.5158C116.185 31.0833 116.134 30.7908 116.108 30.6382C115.496 31.5285 114.704 32.2281 113.734 32.7368C112.789 33.2456 111.755 33.5 110.632 33.5ZM111.972 29.5316C113.377 29.5316 114.653 28.7303 115.802 27.1276V17.9697C114.781 17.2575 113.657 16.9013 112.432 16.9013C109.675 16.9013 108.296 18.9873 108.296 23.1592C108.296 25.2452 108.603 26.8351 109.215 27.9289C109.828 28.9974 110.747 29.5316 111.972 29.5316Z" fill="#272D2C"/>
<path d="M127.996 33.3092C126.643 33.3092 125.967 32.9404 125.967 32.2026V14.3066C125.967 13.5689 126.643 13.2 127.996 13.2H128.762C130.115 13.2 130.792 13.5689 130.792 14.3066V32.2026C130.792 32.9404 130.115 33.3092 128.762 33.3092H127.996ZM128.417 11.0632C126.783 11.0632 125.967 10.6943 125.967 9.95658V7.20921C125.967 6.49693 126.783 6.14079 128.417 6.14079C130.026 6.14079 130.83 6.49693 130.83 7.20921V9.95658C130.83 10.6943 130.026 11.0632 128.417 11.0632Z" fill="#272D2C"/>
<path d="M148.968 26.479C148.381 26.479 147.947 26.2627 147.666 25.8303L142.228 16.2526C141.922 15.8202 141.628 15.2987 141.348 14.6882L141.194 14.7263C141.22 15.1588 141.233 15.8075 141.233 16.6724V32.2026C141.233 32.9404 140.556 33.3092 139.203 33.3092H138.361C137.008 33.3092 136.331 32.9404 136.331 32.2026V7.55263C136.331 6.81491 137.008 6.44605 138.361 6.44605H140.16C141.258 6.44605 141.973 6.75132 142.305 7.36184L148.968 19.0763C149.224 19.5088 149.428 19.9285 149.581 20.3355C149.683 20.0048 149.887 19.5724 150.194 19.0382L156.895 7.36184C157.227 6.75132 157.929 6.44605 159.002 6.44605H160.763C162.116 6.44605 162.793 6.81491 162.793 7.55263V32.2026C162.793 32.9404 162.116 33.3092 160.763 33.3092H159.921C158.568 33.3092 157.891 32.9404 157.891 32.2026V16.7487C157.891 15.8838 157.904 15.2351 157.929 14.8026L157.776 14.7645C157.495 15.375 157.202 15.8965 156.895 16.3289L151.496 25.8303C151.215 26.2627 150.781 26.479 150.194 26.479H148.968Z" fill="#272D2C"/>
<path d="M173.353 33.5C171.413 33.5 169.932 33.0039 168.911 32.0118C167.89 30.9943 167.379 29.6206 167.379 27.8908C167.379 23.2101 171.247 20.857 178.983 20.8316V19.3816C178.983 17.7026 177.847 16.8632 175.575 16.8632C174.63 16.8632 173.8 16.9776 173.085 17.2066C172.371 17.4101 171.745 17.639 171.209 17.8934C170.673 18.1224 170.366 18.2368 170.29 18.2368C169.958 18.2368 169.575 17.8807 169.141 17.1684C168.733 16.4561 168.528 15.9219 168.528 15.5658C168.528 15.1588 168.847 14.7645 169.486 14.3829C170.149 13.9759 171.043 13.6452 172.166 13.3908C173.29 13.1364 174.502 13.0092 175.804 13.0092C178.51 13.0092 180.515 13.5689 181.817 14.6882C183.144 15.782 183.808 17.2956 183.808 19.2289V26.8987C183.808 28.6285 183.885 29.9004 184.038 30.7145C184.191 31.5031 184.267 31.9864 184.267 32.1645C184.267 32.5206 183.846 32.8004 183.004 33.0039C182.161 33.182 181.408 33.2711 180.744 33.2711C180.336 33.2711 180.042 33.093 179.864 32.7368C179.685 32.3553 179.544 31.9482 179.442 31.5158C179.366 31.0833 179.315 30.7908 179.289 30.6382C178.753 31.325 177.987 31.9737 176.991 32.5842C176.021 33.1947 174.809 33.5 173.353 33.5ZM174.655 29.6461C175.549 29.6461 176.366 29.4171 177.106 28.9592C177.847 28.4759 178.472 27.8654 178.983 27.1276V24.2276C176.889 24.2276 175.243 24.4693 174.043 24.9526C172.868 25.4105 172.281 26.2373 172.281 27.4329C172.281 28.1197 172.485 28.6667 172.894 29.0737C173.302 29.4553 173.89 29.6461 174.655 29.6461Z" fill="#272D2C"/>
<path d="M195.293 33.5C193.66 33.5 192.345 33.0294 191.349 32.0882C190.379 31.1469 189.894 29.6715 189.894 27.6618V17.1303H188.86C188.502 17.1303 188.234 17.0031 188.056 16.7487C187.903 16.4943 187.826 16.0746 187.826 15.4895V14.9171C187.826 14.332 187.903 13.9123 188.056 13.6579C188.234 13.4035 188.502 13.2763 188.86 13.2763H189.894L190.392 9.53684C190.519 8.79912 191.107 8.43026 192.153 8.43026H193.072C194.17 8.43026 194.719 8.79912 194.719 9.53684V13.2763H197.055C197.412 13.2763 197.668 13.4035 197.821 13.6579C198 13.9123 198.089 14.332 198.089 14.9171V15.4895C198.089 16.0746 198 16.4943 197.821 16.7487C197.668 17.0031 197.412 17.1303 197.055 17.1303H194.719V27.5855C194.719 28.3487 194.847 28.8829 195.102 29.1882C195.383 29.4934 195.791 29.6461 196.327 29.6461C196.583 29.6461 196.825 29.6206 197.055 29.5697C197.285 29.5189 197.463 29.4934 197.591 29.4934C197.897 29.4934 198.153 29.8241 198.357 30.4855C198.561 31.1215 198.663 31.5921 198.663 31.8974C198.663 32.9658 197.54 33.5 195.293 33.5Z" fill="#272D2C"/>
<path d="M204.438 33.3092C203.085 33.3092 202.408 32.9404 202.408 32.2026V19.6868C202.408 17.9825 202.332 16.736 202.179 15.9474C202.026 15.1588 201.949 14.6754 201.949 14.4974C201.949 14.1412 202.37 13.8741 203.213 13.6961C204.055 13.4925 204.808 13.3908 205.472 13.3908C205.881 13.3908 206.174 13.5689 206.353 13.925C206.532 14.2811 206.659 14.6627 206.736 15.0697C206.838 15.4513 206.902 15.7184 206.927 15.8711C208.102 13.9632 209.519 13.0092 211.178 13.0092C212.02 13.0092 212.595 13.1618 212.901 13.4671C213.233 13.7724 213.399 14.2303 213.399 14.8408C213.399 15.3496 213.297 15.9474 213.093 16.6342C212.889 17.3211 212.633 17.6645 212.327 17.6645C212.199 17.6645 211.944 17.6136 211.561 17.5118C211.204 17.3846 210.833 17.3211 210.45 17.3211C209.71 17.3211 209.046 17.5627 208.459 18.0461C207.872 18.5294 207.463 18.9746 207.234 19.3816V32.2026C207.234 32.9404 206.544 33.3092 205.166 33.3092H204.438Z" fill="#272D2C"/>
<path d="M218.386 33.3092C217.032 33.3092 216.356 32.9404 216.356 32.2026V14.3066C216.356 13.5689 217.032 13.2 218.386 13.2H219.151C220.505 13.2 221.181 13.5689 221.181 14.3066V32.2026C221.181 32.9404 220.505 33.3092 219.151 33.3092H218.386ZM218.807 11.0632C217.173 11.0632 216.356 10.6943 216.356 9.95658V7.20921C216.356 6.49693 217.173 6.14079 218.807 6.14079C220.415 6.14079 221.219 6.49693 221.219 7.20921V9.95658C221.219 10.6943 220.415 11.0632 218.807 11.0632Z" fill="#272D2C"/>
<path d="M226.337 33.3092C224.908 33.3092 224.193 33.0803 224.193 32.6224C224.193 32.4443 224.321 32.1645 224.576 31.7829L230.512 23.0829L224.959 14.7645C224.703 14.332 224.576 14.0395 224.576 13.8868C224.576 13.4289 225.303 13.2 226.759 13.2H227.678C228.265 13.2 228.712 13.2509 229.018 13.3526C229.35 13.4289 229.605 13.607 229.784 13.8868L232.579 18.2368L233.23 19.3053L233.92 18.1987L236.754 13.8487C236.932 13.5943 237.188 13.4289 237.519 13.3526C237.877 13.2509 238.336 13.2 238.898 13.2H239.664C241.094 13.2 241.809 13.4289 241.809 13.8868C241.809 14.0649 241.681 14.3447 241.426 14.7263L235.758 23.0447L241.617 31.7447C241.872 32.1772 242 32.4697 242 32.6224C242 33.0803 241.272 33.3092 239.817 33.3092H238.898C238.311 33.3092 237.851 33.2711 237.519 33.1947C237.213 33.093 236.971 32.9022 236.792 32.6224L233.652 27.7763C233.422 27.4456 233.218 27.1276 233.039 26.8224L232.465 27.7763L229.248 32.6605C229.069 32.9149 228.814 33.093 228.482 33.1947C228.15 33.2711 227.703 33.3092 227.142 33.3092H226.337Z" fill="#272D2C"/>
</svg>
